<?xml version="1.0"?><svg width="2000" height="2000" xmlns="http://www.w3.org/2000/svg">
 <title>Rope Gold</title>
 <metadata id="metadata7">image/svg+xml</metadata>
 <g>
  <title>Layer 1</title>
  <g id="layer1">
   <path d="m1232.200562,99.900223c40.502808,-47.671062 88.12854,-6.988892 22.221313,19.723221c-11.310913,7.313187 -53.945557,-6.740906 -22.221313,-19.723221zm-39.249878,-8.90377c38.651123,-49.183971 87.797363,-10.352371 22.958862,18.85936c-11.024414,7.740128 -54.162964,-4.674492 -22.958862,-18.85936zm-40.363037,-7.08654c36.657104,-50.687851 87.315063,-13.846924 23.693359,17.928452c-10.706299,8.173714 -54.306519,-2.508827 -23.693359,-17.928452zm-39.825439,-5.812134c34.693359,-52.051847 86.721802,-17.174316 24.36145,17.009834c-10.385376,8.577225 -54.362549,-0.431076 -24.36145,-17.009834zm-40.163452,-4.022835c31.886353,-53.816833 85.690063,-21.745613 25.228394,15.694969c-9.916504,9.115738 -54.308594,2.449905 -25.228394,-15.694969zm-40.188843,-2.159462c29.805786,-54.997152 84.796021,-25.002472 25.809814,14.720039c-9.561401,9.487633 -54.174805,4.524239 -25.809814,-14.720039zm-40.980103,-0.180779c27.587097,-56.142573 83.730957,-28.368404 26.376587,13.677528c-9.174194,9.862099 -53.95166,6.681847 -26.376587,-13.677528zm-40.235107,0.984619c25.421753,-57.155353 82.585083,-31.548054 26.880371,12.659569c-8.791199,10.20507 -53.657166,8.739349 -26.880371,-12.659569zm-38.899292,2.538521c22.029358,-58.547194 80.594604,-36.332794 27.575867,11.062859c-8.180542,10.705421 -53.051636,11.870552 -27.575867,-11.062859zm-39.950928,4.870995c19.775452,-59.346298 79.147034,-39.386868 27.978149,10.000793c-7.763,11.007591 -52.560547,13.886871 -27.978149,-10.000793zm-40.384888,6.961693c17.391174,-60.087971 77.512512,-42.513542 28.355286,8.87635c-7.317566,11.308548 -51.9646,15.973793 -28.355286,-8.87635zm-117.170654,29.28508c9.487976,-61.83065 71.374573,-52.166168 29.264038,5.140991c-5.796204,12.158401 -49.466553,22.54953 -29.264038,-5.140991zm-38.634521,13.665771c7.012329,-62.159698 69.236023,-54.972321 29.445679,3.96904c-5.306396,12.38002 -48.528198,24.505234 -29.445679,-3.96904zm195.510986,-49.376701c19.160339,-59.54738 78.734436,-40.204109 28.0802,9.71035c-7.648132,11.087227 -52.414673,14.430557 -28.0802,-9.71035zm-39.667603,6.80529c16.870605,-60.23579 77.140198,-43.184471 28.430786,8.629906c-7.220215,11.37175 -51.82428,16.422943 -28.430786,-8.629906zm-40.000061,8.910362c14.452637,-60.861591 75.356689,-46.227943 28.752808,7.488564c-6.760071,11.650566 -51.12738,18.478455 -28.752808,-7.488564zm-39.015198,9.881416c12.116028,-61.369488 73.534485,-49.07431 29.018127,6.384361c-6.309143,11.900406 -50.383728,20.419334 -29.018127,-6.384361zm-38.642395,11.664063c8.847107,-61.925213 70.830627,-52.901932 29.315552,4.837639c-5.669922,12.218346 -49.231262,23.060036 -29.315552,-4.837639zm-75.878052,28.921127c3.985046,-62.427338 66.485107,-58.269936 29.603699,2.534225c-4.698059,12.623337 -47.280518,26.832947 -29.603699,-2.534225zm-36.791077,16.317123c1.596924,-62.533653 64.208923,-60.768372 29.679199,1.401047c-4.213196,12.793686 -46.220459,28.620621 -29.679199,-1.401047zm-34.961975,17.241089c-2.070068,-62.520241 60.537781,-64.426079 29.710144,-0.340317c-3.457458,13.022049 -44.462097,31.281403 -29.710144,0.340317zm-35.040405,19.798584c-4.458008,-62.39534 58.031128,-66.693069 29.67511,-1.47551c-2.955994,13.141266 -43.236084,32.955917 -29.67511,1.47551zm-34.640503,21.895935c-6.944794,-62.167419 55.323853,-68.955444 29.592896,-2.658554c-2.429321,13.248764 -41.886597,34.655319 -29.592896,2.658554zm-33.387939,22.473953c-9.315125,-61.856827 52.648071,-71.019241 29.469788,-3.787598c-1.921539,13.331009 -40.531616,36.231796 -29.469788,3.787598zm-32.435333,24.025467c-12.580444,-61.275925 48.810913,-73.709427 29.227295,-5.343994c-1.210999,13.415009 -38.555084,38.328064 -29.227295,5.343994zm-31.201477,25.422729c-14.91272,-60.750824 45.957458,-75.521835 29.002014,-6.457275c-0.698547,13.451263 -37.06076,39.773346 -29.002014,6.457275zm-30.456451,27.418823c-17.3255,-60.106873 42.90741,-77.295212 28.721069,-7.609436c-0.161133,13.468384 -35.444885,41.220581 -28.721069,7.609436zm-29.121216,27.78064c-19.609131,-59.396637 39.916809,-78.886475 28.406281,-8.706482c0.352692,13.472412 -33.849335,42.537079 -28.406281,8.706482zm1184.445129,-119.378738c54.251831,-31.141434 85.289551,23.265106 14.230469,26.08252c-13.119629,3.050888 -48.476318,-24.608353 -14.230469,-26.08252zm-33.916626,-21.667664c53.022095,-33.192047 86.116333,19.988251 15.216797,25.519562c-13.261963,3.898148 -48.902588,-23.22377 -15.216797,-25.519562zm-35.579224,-20.335022c51.655029,-35.281708 86.845703,16.535721 16.223267,24.891998c-12.841064,4.06604 -50.249268,-20.748672 -16.223267,-24.891998zm-35.504639,-18.95369c50.268921,-37.230072 87.414429,13.204391 17.16272,24.253769c-12.676147,4.554016 -51.005371,-18.813354 -17.16272,-24.253769zm-36.428711,-17.384735c48.225342,-39.841515 87.991089,8.553894 18.42334,23.310242c-12.638062,5.599182 -51.52002,-16.628769 -18.42334,-23.310242zm-37.084106,-15.639771c46.667603,-41.65554 88.253296,5.184479 19.301147,22.589005c-12.208618,5.68988 -52.50708,-14.087051 -19.301147,-22.589005zm-38.497925,-14.045944c44.967651,-43.484917 88.390015,1.658524 20.187012,21.800812c-11.97168,6.172592 -53.027832,-11.980804 -20.187012,-21.800812zm-38.192017,-12.696991c43.273315,-45.171577 88.389038,-1.721115 21.005737,21.013336c-11.726807,6.62561 -53.446899,-9.945366 -21.005737,-21.013336zm-955.883057,270.38942c-23.50882,-57.968506 34.597626,-81.353912 27.768829,-10.567871c1.24707,13.411285 -30.945679,44.698029 -27.768829,10.567871zm-26.060455,30.670593c-25.706787,-57.027496 31.462769,-82.617126 27.344513,-11.621643c1.757874,13.355011 -29.214386,45.847504 -27.344513,11.621643zm-24.964905,32.498535c-27.96283,-55.956207 28.14209,-83.80719 26.859406,-12.703552c2.289551,13.273499 -27.36087,46.977173 -26.859406,12.703552zm-23.586349,32.611603c-30.0811,-54.846588 24.918076,-84.821594 26.354324,-13.720886c3.127716,13.464508 -26.003601,47.483032 -26.354324,13.720886zm-22.156677,33.739685c-32.944977,-53.175507 20.388367,-86.022858 25.590042,-15.098083c3.490219,13.009644 -22.967087,49.274536 -25.590042,15.098083zm-20.51683,34.624756c-34.954132,-51.877563 17.087601,-86.738159 24.99498,-16.064697c3.98436,12.867065 -21.066238,50.116089 -24.99498,16.064697zm-19.129059,36.242065c-36.99649,-50.441101 13.610855,-87.352051 24.333252,-17.049805c4.495407,12.69696 -19.050156,50.916992 -24.333252,17.049805zm-17.751221,36.120972c-38.896545,-48.990417 10.262085,-87.808105 23.664047,-17.967407c4.976715,12.516602 -17.089981,51.608093 -23.664047,17.967407zm-15.755508,35.656189c-41.700623,-46.627441 5.099472,-88.258484 22.570602,-19.322937c5.702927,12.206787 -14.034042,52.520752 -22.570602,19.322937zm-14.174637,37.668152c-43.452347,-44.999512 1.722198,-88.389038 21.815369,-20.171265c6.164032,11.976501 -12.01947,53.018677 -21.815369,20.171265zm-12.522301,39.020386c-45.213341,-43.229248 -1.806046,-88.387207 20.993248,-21.026001c6.636826,11.720947 -9.893692,53.456482 -20.993248,21.026001zm-11.190674,38.660095c-46.832409,-41.470093 -5.182518,-88.253723 20.174339,-21.813049c7.079239,11.458313 -7.843079,53.796326 -20.174339,21.813049zm-9.464653,39.238892c-48.964127,-38.929565 -9.851753,-87.855103 18.989914,-22.851196c7.67807,11.067078 -4.982018,54.135986 -18.989914,22.851196zm-7.62159,39.519165c-50.416107,-37.030457 -13.204323,-87.414551 18.10228,-23.560608c8.094963,10.766296 -2.909576,54.285767 -18.10228,23.560608zm-5.769493,40.572144c-51.853893,-34.988403 -16.680672,-86.817932 17.148033,-24.26416c8.517632,10.434265 -0.740669,54.359314 -17.148033,24.26416zm-4.51313,39.992981c-53.149874,-32.978455 -19.995522,-86.119812 16.202629,-24.903687c8.914566,10.107849 1.32782,54.34552 -16.202629,24.903687zm-3.488785,37.052917c-55.155359,-29.511108 -25.459309,-84.659729 14.580559,-25.888062c9.538826,9.509338 4.814171,54.151245 -14.580559,25.888062zm-0.405991,40.245117c-56.242538,-27.381592 -28.676968,-83.624878 13.580238,-26.426575c9.895454,9.139404 6.879921,53.927246 -13.580238,26.426575zm1.60553,40.949036c-57.291138,-25.114868 -31.990429,-82.414978 12.515152,-26.947693c10.25206,8.736389 9.027252,53.609558 -12.515152,26.947693zm2.73732,40.153931c-58.209167,-22.906738 -35.117306,-81.131958 11.476036,-27.406372c10.57869,8.337524 11.069633,53.225342 -11.476036,27.406372zm4.557709,40.106323c-59.340927,-19.790283 -39.367085,-79.157104 10.007637,-27.975952c11.005829,7.765747 13.874107,52.564087 -10.007637,27.975952zm6.38443,39.737305c-60.054747,-17.507202 -42.361607,-77.595093 8.931824,-28.338135c11.294403,7.339844 15.873352,51.994751 -8.931824,28.338135zm8.485634,40.092407c-60.705341,-15.096558 -45.426342,-75.842529 7.793022,-28.671875c11.578247,6.882202 17.935341,51.320313 -7.793022,28.671875zm9.467133,39.117798c-61.237461,-12.765991 -48.291782,-74.050415 6.691696,-28.948853c11.832764,6.435547 19.88385,50.597412 -6.691696,28.948853zm10.703621,37.483765c-61.880833,-9.156006 -52.547653,-71.093506 4.984016,-29.291138c12.192673,5.73291 22.81633,49.34375 -4.984016,29.291138zm13.205788,38.018799c-62.185463,-6.784424 -55.22686,-69.033325 3.860794,-29.459961c12.399796,5.260864 24.683304,48.437378 -3.860794,29.459961zm15.34079,38.000732c-62.406364,-4.296875 -57.937294,-66.774658 2.682159,-29.59082c12.599808,4.761719 26.597076,47.413818 -2.682159,29.59082zm16.133759,36.871826c-62.525223,-1.909058 -60.446823,-64.511597 1.549301,-29.671753c12.771667,4.276978 28.390427,46.362915 -1.549301,29.671753zm17.830597,36.212402c-62.538094,1.407227 -63.780319,-61.218018 -0.025253,-29.711914c12.98143,3.59314 30.806808,44.793823 0.025253,29.711914zm19.426407,35.248657c-62.439117,3.796021 -66.074478,-58.735107 -1.16098,-29.689575c13.108917,3.095093 32.496155,43.582275 1.16098,29.689575zm21.523392,34.872925c-62.237457,6.285156 -68.365051,-56.051636 -2.344727,-29.619385c13.221909,2.569702 34.209244,42.251831 2.344727,29.619385zm22.118668,33.624023c-61.947571,8.65918 -70.466125,-53.394287 -3.480545,-29.505981c13.317978,2.064941 35.790054,40.917603 3.480545,29.505981zm20.803314,31.334351c-61.31514,12.38855 -73.556854,-49.039307 -5.252808,-29.243652c13.410645,1.253296 38.207581,38.674438 5.252808,29.243652zm25.32486,31.28064c-60.796494,14.722534 -75.377716,-46.192017 -6.366821,-29.021484c13.449738,0.740967 39.657257,37.185669 6.366821,29.021484zm27.324036,30.54187c-60.160767,17.137817 -77.161255,-43.14856 -7.519897,-28.744751c13.467926,0.203247 41.110016,35.572876 7.519897,28.744751zm27.689667,29.208008c-59.461761,19.424561 -78.753876,-40.167603 -8.612976,-28.436401c13.465759,-0.312256 42.439758,33.975586 8.612976,28.436401zm29.062744,28.011353c-58.348785,22.548096 -80.771729,-35.937622 -10.107697,-27.939819c13.430664,-1.025269 44.180237,31.679443 10.107697,27.939819zm30.235779,26.563477c-57.444611,24.762573 -82.084991,-32.826172 -11.167694,-27.533691c13.381714,-1.537354 45.358459,29.966919 11.167694,27.533691zm32.081543,25.498657c-56.410583,27.035156 -83.330811,-29.522949 -12.258057,-27.065552c13.309082,-2.070923 46.51825,28.133667 12.258057,27.065552zm32.217346,24.12207c-55.33606,29.170654 -84.398071,-26.316162 -13.283569,-26.577393c13.220581,-2.577393 47.559753,26.334961 13.283569,26.577393zm32.129486,22.074829c-53.532196,32.363159 -85.794952,-21.325562 -14.817932,-25.753418c13.050568,-3.348145 49.021515,23.50061 14.817932,25.753418zm34.398895,20.893066c-52.256012,34.38562 -86.547516,-18.03064 -15.79126,-25.167969c12.909485,-3.84375 49.883423,21.612549 15.79126,25.167969zm36.033386,19.519287c-50.841858,36.443604 -87.198059,-14.562988 -16.783264,-24.518066c12.745667,-4.355957 50.706421,19.604492 16.783264,24.518066zm35.925171,18.144043c-49.41217,38.359863 -87.690613,-11.220093 -17.707886,-23.858765c12.569397,-4.839355 51.419312,17.651978 17.707886,23.858765zm36.813293,16.554565c-47.309448,40.924561 -88.162109,-6.557495 -18.947205,-22.886597c12.295288,-5.500122 52.28241,14.903076 18.947205,22.886597zm37.429321,14.795288c-45.711487,42.702515 -88.348755,-3.182373 -19.808411,-22.146118c12.076599,-5.964966 52.812805,12.892944 19.808411,22.146118zm38.806519,13.169556c-43.970398,44.492798 -88.40509,0.345337 -20.676208,-21.337646c12.010315,-6.842773 52.931824,11.359131 20.676208,21.337646zm38.469666,11.827881c-42.23468,46.137939 -88.331787,3.732178 -21.479553,-20.526855c11.58136,-6.892456 53.654358,8.740356 21.479553,20.526855zm37.087341,8.236084c-39.168518,48.773315 -87.901428,9.424194 -22.758484,-19.101074c11.104126,-7.623413 54.111145,5.245605 22.758484,19.101074zm39.481201,7.814209c-37.275574,50.234619 -87.477173,12.77771 -23.471924,-18.216797c10.80603,-8.042236 54.271484,3.173828 23.471924,18.216797zm40.543762,5.967041c-35.241028,51.682495 -86.898315,16.257446 -24.180359,-17.266113c10.47583,-8.466675 54.354919,1.005005 24.180359,17.266113zm39.970764,4.708252c-33.239868,52.991577 -86.213318,19.567017 -24.822632,-16.329468c10.143982,-8.861206 54.353638,-1.07312 24.822632,16.329468zm40.259399,2.909912c-30.385254,54.678467 -85.055298,24.108032 -25.653015,-14.990967c9.660645,-9.386597 54.220398,-3.951294 25.653015,14.990967zm40.233276,1.046753c-28.272888,55.800781 -84.071838,27.338989 -26.207092,-14.000366c9.295227,-9.748535 54.02887,-6.021362 26.207092,14.000366zm40.969604,-0.953247c-26.023499,56.884399 -82.914001,30.674316 -26.745178,-12.942505c8.897522,-10.112061 53.746399,-8.172119 26.745178,12.942505zm40.192383,-2.09729c-23.830811,57.836792 -81.680725,33.820679 -27.220337,-11.911133c8.505493,-10.444458 53.394775,-10.220703 27.220337,11.911133zm38.814087,-3.613892c-20.400879,59.134399 -79.55835,38.548584 -27.871338,-10.295776c7.88147,-10.927612 52.702759,-13.333862 27.871338,10.295776zm39.800903,-5.974609c-18.125854,59.87085 -78.0271,41.561646 -28.244141,-9.2229c7.455322,-11.218018 52.15625,-15.335693 28.244141,9.2229zm40.176758,-8.076294c-15.721802,60.546143 -76.306519,44.641724 -28.589966,-8.088501c7.001709,-11.506714 51.502808,-17.405396 28.589966,8.088501zm39.213135,-9.063721c-13.396851,61.102905 -74.544556,47.525391 -28.878052,-6.989868c6.557007,-11.765137 50.800171,-19.361694 28.878052,6.989868zm38.877808,-10.853027c-10.139648,61.726685 -71.921509,51.408569 -29.207642,-5.449707c5.92334,-12.097168 49.703247,-22.026001 29.207642,5.449707zm38.224609,-12.599121c-7.77356,62.06958 -69.903809,54.121094 -29.395142,-4.329346c5.457764,-12.314087 48.82373,-23.909546 29.395142,4.329346zm38.241699,-14.72937c-5.289917,62.329834 -67.688599,56.866821 -29.544189,-3.152832c4.844971,-12.946045 47.932983,-25.164063 29.544189,3.152832zm37.123901,-15.544556c-2.90332,62.482422 -65.464111,59.421509 -29.642212,-2.015747c4.483521,-12.709351 46.811401,-27.638062 29.642212,2.015747zm34.550659,-14.363281c0.908569,62.547241 -61.721802,63.291626 -29.710938,-0.210938c3.696655,-12.951904 45.037476,-30.449585 29.710938,0.210938zm35.4021,-19.144897c3.298584,62.466919 -59.258301,65.604126 -29.697632,0.924561c3.200073,-13.083984 43.839722,-32.148804 29.697632,-0.924561zm35.043213,-21.245483c5.789917,62.285645 -56.59436,67.916992 -29.636963,2.109009c2.674561,-13.201172 42.522217,-33.872314 29.636963,-2.109009zm33.799316,-21.850464c8.166138,62.018677 -53.956787,70.030762 -29.534912,3.240356c2.16748,-13.293701 41.196655,-35.472778 29.534912,-3.240356zm32.875488,-23.419678c11.44104,61.498901 -50.170044,72.791382 -29.321655,4.800781c1.235229,-13.767944 39.536865,-36.982544 29.321655,-4.800781zm31.667603,-24.839111c13.783691,61.017334 -47.351929,74.654053 -29.11731,5.91748c0.945801,-13.440186 37.790039,-39.075562 29.11731,-5.91748zm30.959961,-26.849121c16.207642,60.418335 -44.334229,76.485596 -28.8573,7.075195c0.410278,-13.463257 36.203857,-40.555786 28.8573,-7.075195zm29.63208,-27.235474c18.504272,59.754272 -41.37854,78.124023 -28.56604,8.172729c-0.10437,-13.468994 34.626709,-41.90979 28.56604,-8.172729zm27.603516,-27.525391c21.974243,58.568115 -36.730225,80.414307 -28.038086,9.83252c-0.8927,-13.443604 32.109497,-43.867798 28.038086,-9.83252zm26.859131,-29.973389c24.196289,57.685059 -33.629517,81.759521 -27.641357,10.896973c-1.40625,-13.395996 30.411621,-45.06189 27.641357,-10.896973zm25.808716,-31.83252c26.479858,56.673462 -30.340332,83.036743 -27.184692,11.991577c-1.939697,-13.329102 28.589478,-46.23999 27.184692,-11.991577zm24.437256,-31.97876c28.625732,55.619751 -27.144287,84.135742 -26.706299,13.021851c-2.447021,-13.244141 26.801147,-47.299683 26.706299,-13.021851zm23.03833,-33.144043c31.532471,54.024902 -22.647827,85.455444 -25.978882,14.418579c-3.486206,-13.376099 24.72876,-48.159912 25.978882,-14.418579zm21.421753,-34.072632c33.574219,52.780518 -19.364624,86.258545 -25.408936,15.401001c-3.643799,-12.967285 22.37915,-49.543701 25.408936,-15.401001zm20.077271,-35.72522c35.653931,51.398438 -15.907593,86.962891 -24.774292,16.40271c-4.158447,-12.811279 20.384644,-50.397705 24.774292,-16.40271zm18.696167,-35.640869c37.590332,49.994507 -12.564819,87.51355 -24.12439,17.341309c-4.646973,-12.650879 18.452148,-51.134155 24.12439,-17.341309zm16.453369,-33.879761c40.564575,47.61853 -7.224365,88.109619 -23.029419,18.773438c-5.406006,-12.33667 15.298462,-52.168091 23.029419,-18.773438zm15.078491,-37.315796c42.354492,46.033691 -3.851929,88.321289 -22.29541,19.639893c-5.872681,-12.121826 13.292603,-52.714355 22.29541,-19.639893zm13.463257,-38.705811c44.158203,44.306274 -0.324097,88.405029 -21.493774,20.514038c-6.751465,-12.062012 11.759766,-52.844727 21.493774,-20.514038zm12.118774,-38.37915c45.819946,42.586182 3.055298,88.353271 -20.693481,21.320679c-6.80249,-11.625488 9.137451,-53.591064 20.693481,-21.320679zm10.407349,-38.999756c48.011719,40.098511 7.732544,88.067017 -19.534912,22.387207c-7.822998,-11.396606 6.895752,-53.696289 19.534912,-22.387207zm8.572021,-39.323486c49.508911,38.234253 11.091431,87.706665 -18.665771,23.117188c-7.832886,-10.958252 4.21582,-54.200073 18.665771,-23.117188zm6.745239,-40.421509c50.995972,36.227783 14.58374,87.194458 -17.727661,23.84375c-8.26416,-10.635986 2.050293,-54.325928 17.727661,-23.84375zm5.47583,-39.872803c52.342773,34.252319 17.90564,86.573242 -16.803711,24.503906c-8.664429,-10.312866 -0.027832,-54.364014 16.803711,-24.503906zm3.727661,-38.803467c54.260132,31.126953 22.947998,85.375244 -15.338867,25.446411c-9.257935,-9.792114 -3.217041,-54.2677 15.338867,-25.446411zm1.59436,-40.215393c55.40979,29.030457 26.19397,84.43573 -14.355103,26.014099c-9.621216,-9.426758 -5.28479,-54.106506 14.355103,-26.014099zm-0.400024,-40.978455c56.52478,26.795288 29.54248,83.323608 -13.305664,26.566284c-9.989624,-9.035217 -7.440063,-53.852844 13.305664,-26.566284zm-1.550415,-40.217163c57.50708,24.615845 32.705811,82.133545 -12.280518,27.05542c-10.326416,-8.646362 -9.493164,-53.529724 12.280518,-27.05542zm-3.370972,-40.223389c58.730469,21.533752 37.011719,80.285034 -10.82959,27.66803c-10.771729,-8.086487 -12.31604,-52.951416 10.82959,-27.66803zm-5.208496,-39.908752c59.510986,19.273621 40.053589,78.811646 -9.763916,28.061829c-11.072754,-7.6698 -14.331177,-52.440918 9.763916,-28.061829zm-7.297974,-40.325256c60.232788,16.88324 43.166748,77.150574 -8.636353,28.429077c-11.369629,-7.221619 -16.411987,-51.827759 8.636353,-28.429077zm-8.308105,-39.380188c60.826904,14.568298 46.09729,75.444275 -7.535522,28.738403c-11.64624,-6.789185 -18.365845,-51.163818 7.535522,-28.738403zm-12.563965,-38.990479c61.641235,10.648865 50.813843,72.343079 -5.690308,29.161865c-12.047363,-6.023865 -21.615112,-49.882935 5.690308,-29.161865zm-12.282471,-38.327026c62.00293,8.285461 53.541016,70.348022 -4.571899,29.358154c-12.268799,-5.559265 -23.506226,-49.019958 4.571899,-29.358154zm-14.413574,-38.362061c62.28418,5.80426 56.306274,68.155518 -3.396606,29.517212c-12.90564,-4.951721 -24.767944,-48.139343 3.396606,-29.517212zm-15.237427,-37.251099c62.460571,3.419678 58.869873,65.953796 -2.266113,29.625549c-13.085571,-4.454712 -26.589355,-47.157715 2.266113,-29.625549zm-16.950439,-36.632996c62.553955,0.105042 62.282349,62.741699 -0.692871,29.703918c-13.303223,-3.755066 -29.051025,-45.682373 0.692871,-29.703918zm-18.568359,-35.707703c62.512573,-2.285706 64.634399,60.315063 0.442749,29.708679c-13.030273,-3.411377 -31.433228,-44.355652 -0.442749,-29.708679zm-20.674194,-35.383057c62.37146,-4.77887 66.990234,57.687744 1.628174,29.667236c-13.156128,-2.888245 -33.178101,-43.066437 -1.628174,-29.667236zm-21.299316,-34.149231c62.143066,-7.159119 69.145996,55.085205 2.760742,29.583435c-13.256592,-2.383331 -34.799561,-41.766602 -2.760742,-29.583435zm-21.958374,-32.209259c61.617065,-10.787964 72.254883,50.93927 4.489624,29.370819c-13.373779,-1.6026 -37.1875,-39.655914 -4.489624,-29.370819zm-24.501465,-31.929413c61.159668,-13.134796 74.14856,48.140381 5.608398,29.177765c-13.425049,-1.090393 -38.675659,-38.205322 -5.608398,-29.177765zm-26.519287,-31.243195c60.58667,-15.56543 76.01123,45.143127 6.768677,28.930817c-13.458008,-0.553741 -40.169678,-36.631653 -6.768677,-28.930817zm-26.9198,-29.919128c59.94751,-17.869507 77.681396,42.204987 7.869751,28.650909c-13.46936,-0.038666 -41.540405,-35.069763 -7.869751,-28.650909zm-28.322998,-28.759033c58.916504,-21.020905 79.807983,38.029327 9.376465,28.193665c-13.452271,0.674896 -43.340332,-32.819275 -9.376465,-28.193665zm-29.533936,-27.341858c58.070068,-23.257324 81.203369,34.951263 10.447266,27.814728c-13.416626,1.188446 -44.562744,-31.138367 -10.447266,-27.814728zm-31.40625,-26.325409c57.095459,-25.55632 82.533325,31.682922 11.548828,27.37561c-13.358765,1.723083 -45.770264,-29.335541 -11.548828,-27.37561zm-31.578369,-24.952744c56.077148,-27.719788 83.684082,28.505234 12.586914,26.91423c-13.282959,2.232513 -46.85791,-27.565002 -12.586914,-26.91423z" id="path4067" stroke-miterlimit="4" stroke-width="4.118783" stroke="#f9fcfb" fill="#ccae08"/>
  </g>
 </g>
</svg>