# 3ds Max Wavefront OBJ Exporter v0.97b - (c)2007 guruware
# File Created: 20.09.2016 13:17:54

mtllib ConeCollider.mtl

#
# object Cone001
#

v  -0.7981 0.2729 3.6367
v  -0.7981 -0.2729 3.6367
v  -2.1015 -0.0000 3.9096
v  -0.7981 -0.2729 4.1825
v  -0.7981 0.2729 4.1825
# 5 vertices

vn -0.2049 -0.0000 -0.9788
vn -0.2049 -0.9788 0.0000
vn -0.2049 0.0000 0.9788
vn -0.2049 0.9788 -0.0000
vn 1.0000 0.0000 0.0000
vn -1.0000 -0.0000 -0.0000
# 6 vertex normals

vt 0.7500 0.0000 1.0000
vt 1.0000 0.0000 1.0000
vt 0.5000 1.0000 0.0000
vt 0.0000 0.0000 1.0000
vt 0.2500 0.0000 1.0000
vt 0.5000 0.0000 1.0000
vt 1.0000 0.5000 -0.2500
vt 0.5000 0.0000 -0.2500
vt 0.0000 0.5000 -0.2500
vt 0.5000 1.0000 -0.2500
# 10 texture coords

g Cone001
usemtl 09___Default
s off
f 1/1/1 2/2/1 3/3/1 3/3/1 
f 2/4/2 4/5/2 3/3/2 3/3/2 
f 4/5/3 5/6/3 3/3/3 3/3/3 
f 5/6/4 1/1/4 3/3/4 3/3/4 
f 5/7/5 4/8/5 2/9/5 1/10/5 
f 3/3/6 3/3/6 3/3/6 3/3/6 
# 6 polygons

